<svg width="290" height="50" viewBox="0 0 290 50" fill="none" xmlns="http://www.w3.org/2000/svg">
<path fill-rule="evenodd" clip-rule="evenodd" d="M50.2437 24.9999C50.2437 38.8075 38.9968 50 25.1222 50C11.2483 50 0.000976562 38.8075 0.000976562 24.9999C0.000976562 11.1929 11.2483 0 25.1222 0C38.9968 0 50.2437 11.1929 50.2437 24.9999Z" fill="#ECB360"/>
<path fill-rule="evenodd" clip-rule="evenodd" d="M43.5447 22.5C43.5447 34.9263 33.7965 44.9999 21.7728 44.9999C9.74864 44.9999 0.000976562 34.9263 0.000976562 22.5C0.000976562 10.0737 9.74864 0 21.7728 0C33.7965 0 43.5447 10.0737 43.5447 22.5Z" fill="#D76835"/>
<path fill-rule="evenodd" clip-rule="evenodd" d="M45.2173 19.9997C45.2173 31.0456 36.5944 40 25.9571 40C15.3209 40 6.698 31.0456 6.698 19.9997C6.698 8.95436 15.3209 0 25.9571 0C36.5944 0 45.2173 8.95436 45.2173 19.9997Z" fill="#D33A41"/>
<path fill-rule="evenodd" clip-rule="evenodd" d="M43.5439 21.6666C43.5439 31.7913 35.6705 39.9998 25.9587 39.9998C16.2468 39.9998 8.37402 31.7913 8.37402 21.6666C8.37402 11.541 16.2468 3.33313 25.9587 3.33313C35.6705 3.33313 43.5439 11.541 43.5439 21.6666Z" fill="#B6CB46"/>
<path fill-rule="evenodd" clip-rule="evenodd" d="M41.8691 23.3326C41.8691 32.5374 34.3709 39.9996 25.1213 39.9996C15.8724 39.9996 8.37402 32.5374 8.37402 23.3326C8.37402 14.1279 15.8724 6.66626 25.1213 6.66626C34.3709 6.66626 41.8691 14.1279 41.8691 23.3326Z" fill="#66AD4A"/>
<path fill-rule="evenodd" clip-rule="evenodd" d="M35.1701 19.9996C35.1701 27.3633 29.1717 33.333 21.772 33.333C14.3721 33.333 8.37402 27.3633 8.37402 19.9996C8.37402 12.6358 14.3721 6.66626 21.772 6.66626C29.1717 6.66626 35.1701 12.6358 35.1701 19.9996Z" fill="#AED7DC"/>
<path fill-rule="evenodd" clip-rule="evenodd" d="M36.848 18.3329C36.848 24.776 31.5996 29.9996 25.1245 29.9996C18.6496 29.9996 13.4015 24.776 13.4015 18.3329C13.4015 11.8893 18.6496 6.66626 25.1245 6.66626C31.5996 6.66626 36.848 11.8893 36.848 18.3329Z" fill="#5BB1CF"/>
<path fill-rule="evenodd" clip-rule="evenodd" d="M36.8439 19.1663C36.8439 25.1495 32.3452 29.9999 26.7954 29.9999C21.2457 29.9999 16.7468 25.1495 16.7468 19.1663C16.7468 13.1838 21.2457 8.33331 26.7954 8.33331C32.3452 8.33331 36.8439 13.1838 36.8439 19.1663Z" fill="#25A8C3"/>
<path fill-rule="evenodd" clip-rule="evenodd" d="M25.1204 29.9997C20.4961 29.9997 16.7468 25.8956 16.7468 20.8328C16.7468 15.7702 20.4961 11.6664 25.1204 11.6664C29.7452 11.6664 33.4945 15.7702 33.4945 20.8328C33.4945 25.8956 29.7452 29.9997 25.1204 29.9997Z" fill="#1B1A18"/>
<path fill-rule="evenodd" clip-rule="evenodd" d="M29.6887 18.1906C28.892 19.5168 27.3258 20.2839 26.1897 19.9025C25.0537 19.5218 24.7788 18.1373 25.5748 16.8107C26.3713 15.4839 27.9376 14.7173 29.0736 15.0981C30.2098 15.4788 30.4847 16.8633 29.6887 18.1906Z" fill="white"/>
<path fill-rule="evenodd" clip-rule="evenodd" d="M255.261 34.3719C254.861 33.2541 254.66 31.8375 254.66 29.9367C254.66 28.036 254.861 26.62 255.261 25.5016C256.381 22.2965 259.345 20.5449 263.227 20.5449C266.109 20.5449 268.392 21.6253 269.912 23.3401C270.033 23.4892 270.072 23.7131 269.873 23.8623L267.351 25.9115C267.15 26.0605 266.949 26.0236 266.791 25.8372C265.829 24.8311 264.829 24.272 263.227 24.272C261.506 24.272 260.184 25.0548 259.624 26.62C259.303 27.5145 259.224 28.5582 259.224 29.9367C259.224 31.3159 259.303 32.397 259.624 33.2915C260.184 34.8191 261.506 35.602 263.227 35.602C264.829 35.602 265.829 35.0431 266.791 34.0369C266.949 33.8504 267.15 33.8504 267.351 33.9994L269.873 36.0492C270.072 36.1984 270.033 36.3848 269.912 36.5707C268.392 38.2481 266.109 39.3291 263.227 39.3291C259.345 39.3291 256.381 37.5775 255.261 34.3719Z" fill="white"/>
<path fill-rule="evenodd" clip-rule="evenodd" d="M285.54 38.9189C285.26 38.9189 285.059 38.8072 284.899 38.5459L280.014 31.0174L277.413 33.8125V38.5459C277.413 38.7699 277.254 38.9189 277.013 38.9189H273.33C273.09 38.9189 272.93 38.7699 272.93 38.5459V13.9472C272.93 13.7239 273.09 13.5748 273.33 13.5748H277.013C277.254 13.5748 277.413 13.7239 277.413 13.9472V28.5577L284.02 21.3273C284.259 21.066 284.458 20.9544 284.779 20.9544H288.862C289.103 20.9544 289.182 21.1777 289.022 21.3273L282.898 27.8865L289.943 38.5459C290.065 38.6949 289.984 38.9189 289.743 38.9189H285.54Z" fill="white"/>
<path fill-rule="evenodd" clip-rule="evenodd" d="M70.8983 35.0426H76.583C79.2252 35.0426 80.7062 33.6261 80.7062 31.502C80.7062 29.4148 79.2252 27.9988 76.583 27.9988H70.8983C70.7385 27.9988 70.658 28.0731 70.658 28.2221V34.8188C70.658 34.9678 70.7385 35.0426 70.8983 35.0426ZM76.3429 24.1226C78.7449 24.1226 80.2259 22.7807 80.2259 20.8052C80.2259 18.7929 78.7449 17.451 76.3429 17.451H70.8983C70.7385 17.451 70.658 17.5253 70.658 17.6745V23.8987C70.658 24.0477 70.7385 24.1226 70.8983 24.1226H76.3429ZM65.9344 13.9472C65.9344 13.7239 66.0947 13.5748 66.3343 13.5748H76.4628C82.2275 13.5748 84.9496 16.2585 84.9496 20.3205C84.9496 23.1906 83.5087 24.8305 81.7868 25.6876V25.7624C83.4684 26.3582 85.4298 28.3711 85.4298 31.4646C85.4298 36.4961 82.0269 38.9189 76.0625 38.9189H66.3343C66.0947 38.9189 65.9344 38.7699 65.9344 38.5459V13.9472Z" fill="white"/>
<path fill-rule="evenodd" clip-rule="evenodd" d="M88.7477 38.9193C88.507 38.9193 88.3466 38.7702 88.3466 38.5463V21.3277C88.3466 21.1038 88.507 20.9547 88.7477 20.9547H92.4303C92.6704 20.9547 92.8307 21.1038 92.8307 21.3277V22.8555H92.871C93.7912 21.4769 95.4326 20.5449 97.8749 20.5449C99.3956 20.5449 100.917 21.1038 101.918 22.0358C102.118 22.2217 102.158 22.3714 101.998 22.5573L99.8758 25.0548C99.7162 25.2408 99.5156 25.2783 99.3158 25.1291C98.4349 24.6071 97.5141 24.272 96.4736 24.272C93.9516 24.272 92.8307 25.9488 92.8307 28.8189V38.5463C92.8307 38.7702 92.6704 38.9193 92.4303 38.9193H88.7477Z" fill="white"/>
<path fill-rule="evenodd" clip-rule="evenodd" d="M114.311 33.2541C114.631 32.3221 114.711 31.465 114.711 29.9367C114.711 28.409 114.631 27.5888 114.311 26.62C113.75 25.1291 112.509 24.272 110.708 24.272C108.906 24.272 107.625 25.1291 107.065 26.62C106.745 27.5888 106.664 28.409 106.664 29.9367C106.664 31.465 106.745 32.3221 107.065 33.2541C107.625 34.7449 108.906 35.602 110.708 35.602C112.509 35.602 113.75 34.7449 114.311 33.2541ZM102.742 34.3719C102.301 33.1049 102.101 31.9122 102.101 29.9367C102.101 27.9618 102.301 26.7691 102.742 25.5016C103.822 22.3714 106.784 20.5449 110.708 20.5449C114.591 20.5449 117.553 22.3714 118.634 25.5016C119.074 26.7691 119.275 27.9618 119.275 29.9367C119.275 31.9122 119.074 33.1049 118.634 34.3719C117.553 37.5028 114.591 39.3291 110.708 39.3291C106.784 39.3291 103.822 37.5028 102.742 34.3719Z" fill="white"/>
<path fill-rule="evenodd" clip-rule="evenodd" d="M138.695 38.9193C138.454 38.9193 138.295 38.7701 138.214 38.5461L134.491 27.0671H134.412L130.648 38.5461C130.568 38.7701 130.408 38.9193 130.168 38.9193H126.885C126.645 38.9193 126.485 38.7701 126.405 38.5461L120.32 21.3277C120.24 21.1038 120.36 20.9546 120.6 20.9546H124.443C124.724 20.9546 124.884 21.0662 124.964 21.3277L128.686 33.1797H128.767L132.45 21.3277C132.53 21.1038 132.73 20.9546 132.97 20.9546H135.852C136.093 20.9546 136.293 21.1038 136.373 21.3277L140.296 33.1797H140.376L143.899 21.3277C143.979 21.0662 144.139 20.9546 144.419 20.9546H148.262C148.503 20.9546 148.622 21.1038 148.543 21.3277L142.457 38.5461C142.378 38.7701 142.217 38.9193 141.977 38.9193H138.695Z" fill="white"/>
<path fill-rule="evenodd" clip-rule="evenodd" d="M149.328 36.4965C149.168 36.3474 149.168 36.1241 149.328 35.9749L151.61 33.7387C151.77 33.5897 152.01 33.5897 152.171 33.7387C153.572 34.9314 155.814 35.7885 157.815 35.7885C160.177 35.7885 161.378 34.8941 161.378 33.6638C161.378 32.5829 160.698 31.9122 158.175 31.6883L156.093 31.5025C152.171 31.1294 150.168 29.2661 150.168 26.2095C150.168 22.7437 152.851 20.5449 157.655 20.5449C160.657 20.5449 163.18 21.4769 164.901 22.7437C165.102 22.8929 165.102 23.1162 164.98 23.2652L163.02 25.4647C162.86 25.6506 162.659 25.6506 162.46 25.539C161.258 24.7561 159.336 24.0481 157.415 24.0481C155.493 24.0481 154.492 24.8311 154.492 25.9115C154.492 26.9556 155.173 27.5888 157.655 27.8127L159.736 27.9991C163.779 28.3716 165.701 30.3098 165.701 33.2541C165.701 36.8321 162.898 39.3291 157.615 39.3291C153.652 39.3291 150.93 37.8757 149.328 36.4965Z" fill="white"/>
<path fill-rule="evenodd" clip-rule="evenodd" d="M180.421 26.3961C179.902 24.9427 178.461 24.0856 176.659 24.0856C174.818 24.0856 173.376 24.9427 172.856 26.3961C172.696 26.8433 172.615 27.2906 172.615 27.9244C172.615 28.0734 172.696 28.1483 172.856 28.1483H180.421C180.581 28.1483 180.662 28.0734 180.662 27.9244C180.662 27.2906 180.581 26.8433 180.421 26.3961ZM168.773 34.3345C168.372 33.1798 168.091 31.8006 168.091 29.9367C168.091 28.0734 168.333 26.6574 168.733 25.5016C169.812 22.3714 172.775 20.5449 176.618 20.5449C180.581 20.5449 183.465 22.4456 184.545 25.5016C184.987 26.7691 185.186 27.9991 185.186 30.9061C185.186 31.1294 185.025 31.2786 184.745 31.2786H172.856C172.696 31.2786 172.615 31.3533 172.615 31.5025C172.615 32.0239 172.736 32.4713 172.896 32.881C173.536 34.6332 175.058 35.602 177.219 35.602C179.38 35.602 180.782 34.8565 181.742 33.8878C181.943 33.7013 182.144 33.6638 182.343 33.813L184.705 35.7512C184.906 35.9002 184.906 36.0868 184.745 36.2732C183.104 38.0617 180.382 39.3291 176.819 39.3291C172.736 39.3291 169.853 37.4659 168.773 34.3345Z" fill="white"/>
<path fill-rule="evenodd" clip-rule="evenodd" d="M188.507 38.9193C188.267 38.9193 188.107 38.7702 188.107 38.5463V21.3277C188.107 21.1038 188.267 20.9547 188.507 20.9547H192.19C192.429 20.9547 192.59 21.1038 192.59 21.3277V22.8555H192.63C193.55 21.4769 195.191 20.5449 197.634 20.5449C199.156 20.5449 200.676 21.1038 201.677 22.0358C201.877 22.2217 201.916 22.3714 201.758 22.5573L199.635 25.0548C199.476 25.2408 199.276 25.2783 199.075 25.1291C198.194 24.6071 197.273 24.272 196.234 24.272C193.711 24.272 192.59 25.9488 192.59 28.8189V38.5463C192.59 38.7702 192.429 38.9193 192.19 38.9193H188.507Z" fill="white"/>
<path fill-rule="evenodd" clip-rule="evenodd" d="M202.446 35.9745C202.285 35.8253 202.206 35.6013 202.366 35.4149L204.848 32.7313C205.008 32.5454 205.248 32.5454 205.408 32.6946C207.17 33.9989 209.771 35.3775 212.813 35.3775C216.056 35.3775 217.937 33.8497 217.937 31.7258C217.937 29.8993 216.737 28.7066 212.973 28.222L211.533 28.0354C206.289 27.3648 203.326 25.0163 203.326 20.805C203.326 16.2208 206.928 13.1649 212.533 13.1649C215.936 13.1649 219.179 14.171 221.34 15.6987C221.541 15.8484 221.581 15.9975 221.421 16.2208L219.499 18.9785C219.339 19.1651 219.138 19.2025 218.938 19.0908C216.737 17.7491 214.694 17.1153 212.413 17.1153C209.651 17.1153 208.13 18.5319 208.13 20.5068C208.13 22.2584 209.451 23.4511 213.134 23.9359L214.576 24.1223C219.818 24.793 222.702 27.1035 222.702 31.4645C222.702 35.9745 219.219 39.3286 212.454 39.3286C208.45 39.3286 204.566 37.8377 202.446 35.9745Z" fill="white"/>
<path fill-rule="evenodd" clip-rule="evenodd" d="M230.997 39.2354C227.114 39.2354 225.632 37.4838 225.632 33.98V24.5141C225.632 24.3649 225.553 24.2901 225.393 24.2901H224.111C223.871 24.2901 223.711 24.141 223.711 23.917V21.4201C223.711 21.1966 223.871 21.0476 224.111 21.0476H225.393C225.553 21.0476 225.632 20.9727 225.632 20.8237V15.9038C225.632 15.6805 225.793 15.5314 226.032 15.5314H229.715C229.957 15.5314 230.117 15.6805 230.117 15.9038V20.8237C230.117 20.9727 230.196 21.0476 230.356 21.0476H232.919C233.159 21.0476 233.319 21.1966 233.319 21.4201V23.917C233.319 24.141 233.159 24.2901 232.919 24.2901H230.356C230.196 24.2901 230.117 24.3649 230.117 24.5141V33.8316C230.117 35.0986 230.677 35.5083 231.919 35.5083H232.919C233.159 35.5083 233.319 35.6575 233.319 35.8814V38.8625C233.319 39.0864 233.159 39.2354 232.919 39.2354H230.997Z" fill="white"/>
<path fill-rule="evenodd" clip-rule="evenodd" d="M247.497 32.881V31.5025C247.497 31.3533 247.416 31.2786 247.256 31.2786H244.054C241.172 31.2786 239.89 32.0239 239.89 33.7013C239.89 35.1921 241.051 35.9376 243.212 35.9376C245.975 35.9376 247.497 34.9314 247.497 32.881ZM247.976 38.9192C247.737 38.9192 247.576 38.7702 247.576 38.5463V37.2419H247.536C246.615 38.472 244.813 39.3291 242.091 39.3291C238.569 39.3291 235.606 37.6149 235.606 33.8504C235.606 29.9367 238.569 28.1483 243.333 28.1483H247.256C247.416 28.1483 247.497 28.0734 247.497 27.9244V27.0673C247.497 25.0168 246.455 24.0856 243.212 24.0856C241.051 24.0856 239.729 24.6445 238.808 25.3157C238.609 25.4647 238.368 25.4273 238.248 25.2408L236.767 22.7812C236.647 22.5947 236.688 22.4081 236.848 22.2965C238.408 21.2529 240.531 20.5449 243.693 20.5449C249.577 20.5449 251.74 22.4081 251.74 26.8066V38.5463C251.74 38.7702 251.578 38.9192 251.339 38.9192H247.976Z" fill="white"/>
</svg>
